# xmcd
#
# Track frame offsets: 
#        150
#        10597
#        21242
#        34017
#        46462
#        61167
#        74960
#        87887
#        100705
#        112977
#        125235
#        136687
#        148160
#        158732
#        170910
#        182900
#        195080
#        210087
#        223492
#        233807
#        245920
#        259365
#        272052
#        285540
#        296745
#        309675
#        321782
#        335337
#
# Disc length: 4644 seconds
#
# Revision: 6
# Processed by: cddbd v1.5.2PL0 Copyright (c) Steve Scherf et al.
# Submitted via: ExactAudioCopyFreeDBPlugin 1.0
#
DISCID=af12221c
DTITLE=The Temptations - The Temptations:  Emperors of Soul [box set]
DYEAR=1994
DGENRE=Soul
TTITLE0=Come On (as "Otis Williams and The Distants")
TTITLE1=Oh Mother of Mine
TTITLE2=Romance Without Finance
TTITLE3=Check Yourself
TTITLE4=Dream Come True
TTITLE5=Mind Over Matter (I'm Gonna Make You Mine) (as "The Pirates)
TTITLE6=I'll Love You 'Til I Die (as "The Pirates)
TTITLE7=Paradise
TTITLE8=Slow Down Heart
TTITLE9=I Couldn't Cry If I Wanted To
TTITLE10=Witchcraft (For Your Love)
TTITLE11=I Want a Love I Can See
TTITLE12=The Further You Look the Less You See
TTITLE13=Farewell My Love
TTITLE14=A Tear from a Woman's Eyes
TTITLE15=The Way You Do the Things You Do
TTITLE16=I'll Be in Trouble
TTITLE17=The Girl's Alright with Me
TTITLE18=Girl (Why You Wanna Make Me Blue)
TTITLE19=Baby Baby I Need You
TTITLE20=My Girl
TTITLE21=(Talking 'Bout) Nobody But My Baby
TTITLE22=It's Growing
TTITLE23=You'll Lose a Precious Love
TTITLE24=Since I Lost My Baby
TTITLE25=You've Got to Earn It
TTITLE26=My Baby
TTITLE27=Don't Look Back
EXTD=
EXTT0=
EXTT1=
EXTT2=
EXTT3=
EXTT4=
EXTT5=
EXTT6=
EXTT7=
EXTT8=
EXTT9=
EXTT10=
EXTT11=
EXTT12=
EXTT13=
EXTT14=
EXTT15=
EXTT16=
EXTT17=
EXTT18=
EXTT19=
EXTT20=
EXTT21=
EXTT22=
EXTT23=
EXTT24=
EXTT25=
EXTT26=
EXTT27=
PLAYORDER=
